<?xml version="1.0" encoding="UTF-8"?>
<svg version="1.1" viewBox="0 0 1348 1092" width="1280" height="1280" xmlns="http://www.w3.org/2000/svg">
<path transform="translate(670,121)" d="m0 0h24l32 2 26 4 26 6 30 10 25 11 23 12 21 13 16 12 13 10 14 13 8 7 9 9 7 8 11 13 14 19 12 19 11 19 11 24 10 27 7 24 6 31 2 17 1 16v39l-2 29-5 28-5 20-10 30-9 21-8 17-13 22-12 17-9 13-2 1h-539l-6-5-14-20-12-20-12-23-9-20-7-20-6-20-6-28-3-21-1-14v-49l2-24 5-29 8-30 11-29 14-29 11-19 8-12 10-14 8-10 12-14 7-7 7-8 12-11 10-9 20-15 15-10 15-9 23-12 20-9 33-11 30-7 21-3zm2 16-29 2-29 5-26 7-26 9-24 11-19 10-19 12-19 14-14 12-12 11-16 16-9 11-12 15-10 15-11 18-12 23-10 24-8 24-6 25-3 16-3 26v48l4 33 6 27 8 27 11 27 11 22 11 18 15 22 4 1h521l8-11 10-15 11-19 13-27 8-21 8-28 6-31 2-15 1-14v-40l-3-29-5-26-7-25-7-20-10-23-11-21-13-21-12-16-13-16-12-13-15-15-11-9-16-13-26-17-24-13-25-11-30-10-25-6-25-4-34-2z" fill="#0F0F0F"/>
<path transform="translate(333,680)" d="m0 0 9 1 4 5 1 2-1 10-4 12-5 12-1 5 9-2 12-7 7 1 7 6 3 5v6l-12 25-4 11-2 12v8l3 12 1 2 7-1 6-4 8-9 10-16 7-22 8-17 11-12 6-5 12-3h7l8 3 4 4 1 3v10l-4 8-8 10-9 9-10 7-4 2-2 5v13l2 5h8l7-3 9-6 12-12 9-13 11-18 11-12 9-6 9-4 7-1 8 3 8 7 1 4-7 2-10 3-6 4-7 7-8 15-5 12-1 6 3 6 5-1 6-7 12-23 5-12 4-4h12l5 4 1 3-8 32-4 12 9-3 2-4 7-9 15-26 4-6 6-26 4-6 4-3 7 1 4 7 2 8v11l15-16 7-6 7 1 5 9 2 9 12-12 8-7 6-1 5 4 3 8 1 12-9 36-3 10 8-5 12-14 6-10 1-5v-14l-2-9 7-9h8l6 3 4 6 2 9 1 46h3l8-7 6-6 1-16 3-10 6-8 4-2 10 1 2 2-1 48 5-3 9-13 8-16 5-14 3-18 1-15 5 2 5 16v9l-4 11-11 20-10 15-17 17-3 2-7-1-8-6-6-10-16 12-7 5-7-1-8-7-4-8-1-9 1-6-4 4-8 11-7 7-8 4h-8l-7-6-4-10v-11l5-23 6-14-8 6-8 10-2 3v21l-2 11-4 7h-7l-7-3-4-4-2-6v-10l6-25 3-10-9 10-8 14-6 16-4 14-4 6-9 6-3-1-5-10-1-10 1-10-3 4-8 13-10 14-10 6-7 1-6-4-4-5-5-15-5 10-7 8-5 3h-10l-8-4-6-7-2-6v-6h-2l-2 4-7 9-10 9-10 6-6 2h-11l-10-4-5-5-4-9-2-8-10 18-9 11-9 5-8 1-10-3-6-4-7-11-2-7v-16l4-18 6-16v-5l-12-2-2 5-8 16-5 7-3 1-1-4 11-21 2-7-8-14v-14l5-12 5-7zm3 17-5 6-3 8v6l4 1 5-11 2-6v-4zm108 36-5 4-7 10-7 13 1 3 8-6 8-10 5-10-1-4z" fill="#101010"/>
<path transform="translate(744,253)" d="m0 0h182l1 1v406l-4 2h-498l-3-2-1-25v-161l3-3h17l1-11 1-1h55l1 1v11h12v-10l1-2h56l1 12 173-1v-141l1-75zm5 5v196h171l1-4v-192zm155 201-155 1v196h172v-197zm-455 5-1 1v6h45v-6l-1-1zm69 0-1 1v5l1 1h44l1-1v-5l-1-1zm-89 12-2 1 1 5h154l1-5-10-1zm159 1-1 131 1 24h155v-155zm-17 10-9 1 4 3v12h-9l-1-3v-7l1-5h-10l2 5 3 2-1 4-3 2v2h-6l-4-4v-8l4-1v-2h-114v18h154l1-1v-17zm-143 24v121h154l1-1v-119l-1-1zm0 127-1 7v10l1 1h155v-18zm160 0v18h155v-18z" fill="#333"/>
<path transform="translate(199,625)" d="m0 0 8 1 8 5 4 5 1 4v31l5-5 6-8 9-8 17-8 4-1h18l11 4 5 4 7 10 4 13v27l-7 26-11 27-7 14-10 15-7 11-10 12-11 9-12 7-12 4h-8l-5-5-2-3-1-7 3-9 5-8 5-4 9-6 13-11 6-5 7-12 10-25 7-21 2-18 1-8v-9l-3-8-1-3-10-3-13 1-8 3-5 5-6 9-4 14 1 9-8 28-6 27-7 26-9 25-5 5-6 2-3 2-9 1-5-5-3-10 2-9 5-16 7-33 6-37 11-76 4-4z" fill="#090909"/>
<path transform="translate(1010,702)" d="m0 0 4 2 4 8 2 13-3 10-7 13-8 12-11 14-9 9-13 10-7 5-7-1-9-8-3-7-1-17-13 21-11 12-8 4-7-1-7-6-4-11-2-6-5 10-7 8-5 3h-10l-8-4-6-7-2-6v-6h-2l-2 4-7 9-10 9-10 6-6 2h-11l-10-4-5-4-4-10-1-5v-10l2-15 5-13 4-8 11-12 6-5 12-3h7l8 3 5 6v11l-4 8-8 10-9 9-10 7-4 2-2 5v13l2 5h8l7-3 9-6 12-12 9-13 11-18 11-12 9-6 9-4 6-1 9 3 7 6 1 5-7 2-11 4-8 7-6 8-8 17-3 10 3 7 5-1 6-7 12-23 5-12 4-4h11l5 3 2 4-8 32-3 7-1 5 7-3 7-7 13-21 5-12v-15l-2-5 1-4 6-8h8l6 3 4 6 2 8 1 48 4-1 8-7 8-9 10-16 6-15 3-12 2-21zm-182 31-6 5-10 16-3 6v2l5-2 10-10 6-10 1-6z" fill="#101010"/>
<path transform="translate(1115,680)" d="m0 0h7l5 3 3 5-1 10-6 17-4 9v2l4 1 5-2 12-7 7 1 7 6 3 5-1 7-10 22-6 17-1 12 2 15 3 3 6-1 6-4 5-5 7-10 8-16 7-18 4-1-1 8-5 13-8 16-8 13-6 7-10 6-8 1-10-3-8-7-4-6-3-9v-15l4-20 7-18v-2l-13-1-8 16-7 10-6 4-6 10-11 13-10 10-9 6-9 3h-10l-12-5-5-7-3-12v-9l2-15 6-15 6-10 11-11 6-3 9-2h7l8 3 5 6 1 2-1 9-6 11-11 12-9 8-9 5-2 5v13l2 5h8l7-3 9-6 5-4 2-3h2l2-4 6-8 11-16 8-9 5-11-2-6-6-10v-13l5-14 5-6zm3 17-5 8-2 8 2 6 4-4 5-16-1-2zm-52 36-8 9-9 16v4l5-2 7-8 7-10 2-8z" fill="#131313"/>
<path transform="translate(433,517)" d="m0 0h144l1 1v106l-2 2h-142l-2-2v-104zm6 6-1 1v96h134v-97z" fill="#1E1E1E"/>
<path transform="translate(473,270)" d="m0 0h64l1 1 1 38 7 11 13 18 11 16 10 15 2 5-1 1h-152v-5l8-11 11-16 14-20 8-12 1-4 1-36zm4 6v31h56v-30l-1-1zm-1 37-7 9-7 10-13 19-12 17v2h135l-1-5-4-5-22-32-10-14-1-1z" fill="#2B2B2B"/>
<path transform="translate(1010,702)" d="m0 0 4 2 4 8 2 13-3 10-7 13-8 12-11 14-9 9-13 10-7 5-7-1-9-8-3-7-1-17-2 1-1-7 3-8v-15l-2-5 1-4 6-8h8l6 3 4 6 2 8 1 48 4-1 8-7 8-9 10-16 6-15 3-12 2-21z" fill="#121212"/>
<path transform="translate(728,852)" d="m0 0h18l2 2v72l1 3 9 4v2l-9 1h-9l-2-3v-5l-8 7-2 1h-16l-6-4-4-5-4-11v-20l4-11 4-5 8-4h11l12 6-1-22-9-4zm-11 31-6 6-3 13v11l3 11 7 6h8l5-3 5-6 1-5v-19l-3-8-5-5-2-1z" fill="#1E1E1E"/>
<path transform="translate(592,478)" d="m0 0h143l5 1v20l-4 1h-144l-1-1v-19zm5 6v10h136l1-3v-7z" fill="#454545"/>
<path transform="translate(508,856)" d="m0 0h9l10 3 6 7v5l-5 5-4-2-3-8-5-3h-9l-5 3-2 3v11l5 6 16 8 10 7 4 6 1 3v9l-3 7-5 6-8 4-6 1h-11l-9-3-6-6-1-8 3-5 4-1 4 10 5 5 5 2 9-1 5-3 3-6-1-9-4-5-14-7-9-5-6-7-3-9 1-10 6-8 8-4z" fill="#212121"/>
<path transform="translate(611,877)" d="m0 0h19l1 41 2 8 5 3h7l6-4 3-6 1-14v-21l-6-2-3-2v-3h19l1 1 1 50 5 3 4 2v2l-3 1h-11l-5-1-1-6-7 6-2 1h-17l-6-4-4-10-1-36-1-2-8-3z" fill="#1F1F1F"/>
<path transform="translate(846,876)" d="m0 0h14l8 3 5 5 4 6 2 6v20l-3 9-7 8-6 3-6 1h-8l-10-3-7-8-3-7-1-5v-16l3-10 6-8zm2 6-6 5-3 7-1 8v9l1 9 6 9 4 2h9l6-4 3-5 1-3v-25l-3-7-6-5z" fill="#222"/>
<path transform="translate(573,863)" d="m0 0h3l1 5-1 9h15v6h-14v37l2 9 2 1 10 1 1 4-1 1h-17l-6-5-2-9v-36l1-3h-9v-3l9-5z" fill="#202020"/>
<path transform="translate(777,877)" d="m0 0h19l1 51 7 3 4 2-3 3h-27l-3-1 2-4 7-1 1-4v-41l-8-4z" fill="#252525"/>
<path transform="translate(699,300)" d="m0 0h13l3 4-1 10-6 2-1 57 5 2 5 5 1 2v9l-5 6-9 2-7-3-4-5-1-8 3-5 7-6v-57l-4-1-1-3v-9zm3 4-1 5 2 2h6l2-2-1-4-1-1zm1 73-4 2-2 3v7l4 4 7 1 4-2 2-6-2-5-5-4z" fill="#353535"/>
<path transform="translate(654,300)" d="m0 0h15l2 4-1 10-5 2-1 60 3 1 4 7 1 5v8l-1 2-3 1h-14l-3-3v-9l3-7 5-7v-58l-5-2-1-7v-6zm5 4-2 1 1 5 5 1 2-2-1-4zm2 76-5 5-1 8 2 3h9l2-2-2-10-2-4z" fill="#333"/>
<path transform="translate(763,375)" d="m0 0h5l1 1v50l-3 1-3-2z" fill="#323232"/>
<path transform="translate(582,505)" d="m0 0 1 4h-50l-17-1h-72v1h-15l-1-3z" fill="#FEFEFE"/>
<path transform="translate(699,300)" d="m0 0h13l3 4-1 10-6 2-1 55-3-1v-48l-1-7-2-2 1-2 7-1 1-4-1-1-9-1z" fill="#0B0B0B"/>
<path transform="translate(749,255)" d="m0 0h17v1h101l1-1 25 1 14-1h11l2 3h-171z" fill="#F8F8F8"/>
<path transform="translate(604,548)" d="m0 0h9l5 5v8l-4 5-2 1h-8l-5-5-1-7 4-6zm1 5-1 1v6l2 2 5-1 1-1-1-7z" fill="#323232"/>
<path transform="translate(764,470)" d="m0 0 5 1v36l-1 1h-5v-37z" fill="#333"/>
<path transform="translate(542,488)" d="m0 0h5l2 4 4 3-2 5-5 4-6-1-3-4v-6l3-3h2z" fill="#313131"/>
<path transform="translate(557,488)" d="m0 0 7 1 3 2v10l-1 2-9 1-2-4v-7z" fill="#373737"/>
<path transform="translate(698,301)" d="m0 0 4 4 1 6v3l1 1 1 7v33l-1 17h-1l-1-57-4-1-1-3v-9z" fill="#FEFEFE"/>
<path transform="translate(789,853)" d="m0 0 6 1 1 1v9l-1 1h-8l-2-1-1-6 2-4z" fill="#242424"/>
<path transform="translate(716,380)" d="m0 0 2 2v9l-5 6-9 2-6-2v-1l14-4 1-8 3-1z" fill="#434343"/>
<path transform="translate(537,271)" d="m0 0h1v38l-15-1v-1l12-1 1-1-1-8v-18z" fill="#FBFBFB"/>
<path transform="translate(699,300)" d="m0 0h13l3 4-1 10h-3l1-3-3-1 1-4-1-1-9-1z" fill="#0C0C0C"/>
<path transform="translate(907,255)" d="m0 0h11l2 3h-47l4-2h16z" fill="#FEFEFE"/>
<path transform="translate(664,877)" d="m0 0 2 1 1 50v3l-2-1z" fill="#FEFEFE"/>
<path transform="translate(698,301)" d="m0 0 4 4 1 6-1 4-4-1-1-3v-9z" fill="#F9F9F9"/>
<path transform="translate(713,302)" d="m0 0 2 2-1 10h-3l1-3-3-1 1-5h2z" fill="#F7F7F7"/>
<path transform="translate(668,300)" d="m0 0 2 1 1 6-1 7-5 1 2-1v-10z" fill="#EBEBEB"/>
<path transform="translate(1184,751)" d="m0 0h3l-1 8-2 3-2-8z" fill="#E6E6E6"/>
<path transform="translate(611,877)" d="m0 0 5 1 2 5-5-1-3-1z" fill="#6C6C6C"/>
<path transform="translate(705,394)" d="m0 0 3 1-1 1 4 2-7 1-6-2v-1z" fill="#FEFEFE"/>
<path transform="translate(716,380)" d="m0 0 2 2v9l-2 2v-5h-2l-1-4 3-1z" fill="#FEFEFE"/>
</svg>
